<svg width="1024" height="1024" viewBox="0 0 1024 1024" fill="none" xmlns="http://www.w3.org/2000/svg">
<g clip-path="url(#clip0_500_496)">
<rect width="1024" height="1024" rx="228" fill="#2E5283"/>
<g filter="url(#filter0_d_500_496)">
<path d="M293.65 284.15C414.518 405.018 671.741 343.759 868.175 147.325C671.741 343.759 610.482 600.982 731.35 721.849C610.482 600.982 353.259 662.241 156.825 858.675C353.259 662.241 414.518 405.018 293.65 284.15Z" fill="#D7E8BC"/>
<path d="M293.65 284.15C414.518 405.018 671.741 343.759 868.175 147.325C671.741 343.759 610.482 600.982 731.35 721.849C610.482 600.982 353.259 662.241 156.825 858.675C353.259 662.241 414.518 405.018 293.65 284.15Z" fill="url(#paint0_linear_500_496)" fill-opacity="0.2"/>
</g>
</g>
<defs>
<filter id="filter0_d_500_496" x="156.825" y="147.325" width="719.349" height="719.349" filterUnits="userSpaceOnUse" color-interpolation-filters="sRGB">
<feFlood flood-opacity="0" result="BackgroundImageFix"/>
<feColorMatrix in="SourceAlpha" type="matrix" values="0 0 0 0 0 0 0 0 0 0 0 0 0 0 0 0 0 0 127 0" result="hardAlpha"/>
<feOffset dx="4" dy="4"/>
<feGaussianBlur stdDeviation="2"/>
<feComposite in2="hardAlpha" operator="out"/>
<feColorMatrix type="matrix" values="0 0 0 0 0.180392 0 0 0 0 0.321569 0 0 0 0 0.513726 0 0 0 1 0"/>
<feBlend mode="normal" in2="BackgroundImageFix" result="effect1_dropShadow_500_496"/>
<feBlend mode="normal" in="SourceGraphic" in2="effect1_dropShadow_500_496" result="shape"/>
</filter>
<linearGradient id="paint0_linear_500_496" x1="649.325" y1="-71.5244" x2="893.6" y2="954.178" gradientUnits="userSpaceOnUse">
<stop offset="0.353616" stop-color="white"/>
<stop offset="0.647997"/>
</linearGradient>
<clipPath id="clip0_500_496">
<rect width="1024" height="1024" fill="white"/>
</clipPath>
</defs>
</svg>
